<svg xmlns="http://www.w3.org/2000/svg" viewBox="0 0 20.03 7.09"><defs><style>.cls-1{fill:#fbfa55;}</style></defs><g id="Layer_2" data-name="Layer 2"><g id="Layer_1-2" data-name="Layer 1"><path class="cls-1" d="M19.86,5c-.49.17-1,.35-1.48.5a8.37,8.37,0,0,1-1.1.26,3,3,0,0,1-.6,0v0h-.14a10.26,10.26,0,0,1-2.48-.18c-.5-.1-1-.25-1.49-.38s-1-.26-1.47-.37c-.28-.07-.56-.11-.85-.16l-.63-.11a1.21,1.21,0,0,1-.48-.12A4.59,4.59,0,0,1,8.61,4c-.07-.09,0-.16,0-.23s.64-.24.92-.36a0,0,0,0,1,0,0l.05.06c.14.18.28.34.4.53a.36.36,0,0,0,.37.18.24.24,0,0,0,.19-.29l-.18-1.05a1.42,1.42,0,0,1,.36-1.33.49.49,0,0,0,0-.14c-.05,0-.12,0-.15,0-.28.19-.61.31-.58.76a3.56,3.56,0,0,1-.1.79s0,.07-.05.11l-.09-.06a.48.48,0,0,1-.09-.11c-.17-.27-.33-.55-.52-.82A.35.35,0,0,0,9,1.91.2.2,0,0,0,8.83,2c-.06.23-.08.46-.15.68a6.29,6.29,0,0,1-.3.71c0,.07-.1.15-.18,0a3.09,3.09,0,0,1-.82-1.71.64.64,0,0,0-.18-.4.37.37,0,0,0-.54,0,.61.61,0,0,0-.1.64,6.28,6.28,0,0,1,.37.79,1.4,1.4,0,0,1,0,.54.36.36,0,0,1-.13.17.33.33,0,0,1-.15-.11L6.12,2.6A1.59,1.59,0,0,0,6,2.47a1.07,1.07,0,0,0-.07.19s0,.08,0,.12,0,.2,0,.3a.73.73,0,0,0,0,.33c.09.23.06.27-.18.31s-.67.17-1,.26L4.63,4s0-.09,0-.12c.23-.47.46-.95.7-1.42A1.56,1.56,0,0,0,5.5,1.28c0-.16-.15-.22-.3-.14s-.47.23-.69.37a.54.54,0,0,0-.13.21.88.88,0,0,0,.23,0c.12,0,.18,0,.19.11a1,1,0,0,1,0,.3A8.65,8.65,0,0,1,4.55,3c0,.09-.11.1-.17,0a.86.86,0,0,0-.55-.44,2.49,2.49,0,0,0-1.12,0,.3.3,0,0,1-.24-.1,3.69,3.69,0,0,1-.14-.66s0-.09.09-.11A.44.44,0,0,1,3,1.86c.09.32.12.28.42.29a.65.65,0,0,0,.46-.27.2.2,0,0,0,0-.28A4.37,4.37,0,0,1,3.53.92C3.42.67,3.37.64,3.14.8l-.39.31c-.14.12-.42.12-.45,0S2.2.68,2.12.48,2,.34,1.92.36a6,6,0,0,0-.61.42s0,.07,0,.11,0,.36.05.54a.11.11,0,0,1-.05.08,2.29,2.29,0,0,0-.78.56.64.64,0,0,0-.2.6.57.57,0,0,0,.51.4c.2,0,.4,0,.6,0s.16.06.17.1a2.33,2.33,0,0,1,0,1.2.2.2,0,0,1-.15.12A2.07,2.07,0,0,1,1,4.43.32.32,0,0,1,.76,4s0-.08,0-.13-.13,0-.18,0a1.09,1.09,0,0,0-.6.66.26.26,0,0,0,.15.33.53.53,0,0,0,.27.08h.93c.25,0,.28-.08.27.24a2.64,2.64,0,0,1-.23,1.21c-.1.2-.2.4-.29.6,0,0,0,.08,0,.11s.09,0,.11,0A8.86,8.86,0,0,0,2,6.34,3.18,3.18,0,0,0,2.5,5.11c.08-.25.15-.48.45-.53a.74.74,0,0,0,.24-.11L3.84,4S4,4,4,4a.68.68,0,0,1,0,.15l-.46.74A.65.65,0,0,0,3.5,5l.15,0c.19-.15.36-.31.56-.44a2.68,2.68,0,0,1,1.57-.47A1.56,1.56,0,0,0,6.61,4a.12.12,0,0,1,.08,0s0,.06-.05.07l-.29.14a.8.8,0,0,0-.13.13l.17.07.13,0a.75.75,0,0,1-.06.13.24.24,0,0,1-.11.06c-.37.06-.75.11-1.12.18a6.32,6.32,0,0,0-2.32,1,6.91,6.91,0,0,0-.6.5,3.85,3.85,0,0,0-.3.27.2.2,0,0,0,0,.32.22.22,0,0,0,.22,0A3.37,3.37,0,0,1,3.78,5.76a15.63,15.63,0,0,1,1.6-.51A10.37,10.37,0,0,1,7,5,9.62,9.62,0,0,1,8.38,5a.94.94,0,0,1,.85.33s.08,0,.11,0a.51.51,0,0,1,.45,0c.08,0,.19.1.16-.09a.07.07,0,0,1,.05,0,1.41,1.41,0,0,1,.29,0l2.15.52c.54.12,1.08.26,1.63.37a8,8,0,0,0,1.38.16c.64,0,1.29,0,1.94-.09A3.68,3.68,0,0,0,18.12,6a4.41,4.41,0,0,0,.72-.26c.25-.13.49-.3.73-.45l.1,0s.09,0,.13,0A.59.59,0,0,0,20,5.1l.05,0A1,1,0,0,0,19.86,5ZM8.72,3.51c.12-.2.23-.4.34-.6s.12-.11.19,0l.29.44c-.15,0-.41.11-.83.23A.43.43,0,0,0,8.72,3.51Zm-7.43-1c-.14,0-.3,0-.32-.19a.51.51,0,0,1,.35-.41c.09,0,.22.27.21.45S1.4,2.5,1.29,2.5ZM3.44,3.91c-.18.14-.36.27-.55.39a.2.2,0,0,1-.31-.15l0-.21V3.73l0-.46a.21.21,0,0,1,.21-.22.68.68,0,0,1,.69.17A.45.45,0,0,1,3.44,3.91Zm3.88-.54a.11.11,0,0,1,0-.08s.07,0,.09,0a2.82,2.82,0,0,1,.24.36c.08.16-.09.16-.17.19s-.26,0-.25-.15S7.3,3.49,7.32,3.37ZM8.13,4.5H7.29c-.17,0-.21-.06-.13-.21a1,1,0,0,1,.22-.18.42.42,0,0,1,.12,0c.5-.14.41-.09.71.27a.11.11,0,0,1,0,.11S8.18,4.48,8.13,4.5Z"/><path class="cls-1" d="M17.68,2.83c0-.4-.05-.8-.07-1.2a.57.57,0,0,1,.24-.52A.35.35,0,0,1,18,1.05s.1.08.09.1a2.39,2.39,0,0,0,0,1.45,7.4,7.4,0,0,0,.33,1c.07.21,0,.33-.21.36a.65.65,0,0,1-.51-.22L16.48,2.61l-.09-.07-.2,0c0,.08,0,.16,0,.24l.06.45A9.87,9.87,0,0,0,16.68,5a.57.57,0,0,1,0,.18c0,.11-.15.12-.27.06a1.22,1.22,0,0,1-.53-.9c-.16-.73-.36-1.46-.54-2.19a.24.24,0,0,1,.08-.3s0-.1,0-.13-.24-.25-.36-.38-.16-.14-.05-.25.21-.22.37-.08l.67.59c.32.28.64.55.95.84s.29.3.45.45a.48.48,0,0,0,.18.07l.05-.16Z"/><path class="cls-1" d="M13.56,2.15a4.56,4.56,0,0,0-1.22.63c-.4.26-.35.29-.69.1-.07,0-.12-.13-.18-.16a.37.37,0,0,1-.28-.38A.42.42,0,0,1,11.51,2c.22-.05.45-.06.68-.09v0a1.51,1.51,0,0,0,.37,0c.25-.07.5-.17.74-.26,0,0,.06-.09.08-.14h-.13c-.54.07-1.08.18-1.63.2a1.12,1.12,0,0,0-.88.54.68.68,0,0,0,.11.74c.12.13.25.25.37.39a.22.22,0,0,1,0,.21c0,.12-.12.22-.17.34s0,.06.06.06a1.61,1.61,0,0,0,.31-.19.18.18,0,0,1,.27,0c.22.17.43.34.66.5a.6.6,0,0,0,.8,0,2.13,2.13,0,0,0,.7-1.85A.24.24,0,0,0,13.56,2.15Zm-.4.69L13,3.72a.12.12,0,0,1-.19.09c-.19-.13-.37-.26-.54-.4a.14.14,0,0,1,0-.25L13,2.72C13.15,2.64,13.17,2.73,13.16,2.84Z"/><path class="cls-1" d="M15.53,4l-.32.63a.23.23,0,0,1-.08.09A.59.59,0,0,1,15,4.8a.57.57,0,0,1,0-.13,1,1,0,0,0-.11-.77c-.22-.5-.44-1-.64-1.52a2.89,2.89,0,0,1-.11-.51.29.29,0,0,1,.25-.33c.09,0,.18,0,.23.09.28.74.57,1.48.86,2.22,0,0,0,.09,0,.14Z"/><path class="cls-1" d="M19.45.93V1l-.12.26A.6.6,0,0,1,19.2,1a1.19,1.19,0,0,0-.44-.68c-.08-.07-.21-.12-.13-.26a.31.31,0,0,1,.41,0A1.25,1.25,0,0,1,19.45.93Z"/></g></g></svg>